<svg xmlns="http://www.w3.org/2000/svg" width="24" height="24" viewBox="0 0 24 24" fill="none">
  <!-- Marco exterior estilo UI moderna -->
  <path fill-rule="evenodd" clip-rule="evenodd"
    d="M6 3C4.34315 3 3 4.34315 3 6V18C3 19.6569 4.34315 21 6 21H18C19.6569 21 21 19.6569 21 18V6C21 4.34315 19.6569 3 18 3H6ZM4.5 6C4.5 5.17157 5.17157 4.5 6 4.5H18C18.8284 4.5 19.5 5.17157 19.5 6V18C19.5 18.8284 18.8284 19.5 18 19.5H6C5.17157 19.5 4.5 18.8284 4.5 18V6Z"
    fill="currentColor"/>

  <!-- Líneas convertidas en bloques tipo "content preview" -->
  <rect x="7" y="7" width="10" height="1.6" rx="0.8" fill="currentColor"/>
  <rect x="7" y="10.5" width="10" height="1.6" rx="0.8" fill="currentColor"/>
  <rect x="7" y="14" width="10" height="1.6" rx="0.8" fill="currentColor"/>

  <!-- Sidebar dots (antes eran pequeños trazos) -->
  <rect x="5.5" y="7" width="1.3" height="1.6" rx="0.6" fill="currentColor"/>
  <rect x="5.5" y="10.5" width="1.3" height="1.6" rx="0.6" fill="currentColor"/>
  <rect x="5.5" y="14" width="1.3" height="1.6" rx="0.6" fill="currentColor"/>
</svg>
