<?xml version="1.0" standalone="no"?>
<!DOCTYPE svg PUBLIC "-//W3C//DTD SVG 20010904//EN"
 "http://www.w3.org/TR/2001/REC-SVG-20010904/DTD/svg10.dtd">
<svg version="1.0" xmlns="http://www.w3.org/2000/svg"
 width="512.000000pt" height="512.000000pt" viewBox="0 0 512.000000 512.000000"
 preserveAspectRatio="xMidYMid meet">

<g transform="translate(0.000000,512.000000) scale(0.100000,-0.100000)"
fill="currentColor" stroke="none">
<path d="M2960 4795 c0 -278 -10 -254 95 -232 l60 13 3 232 2 232 -80 0 -80 0
0 -245z"/>
<path d="M2640 4679 c0 -186 1 -200 18 -195 9 3 45 10 80 17 l62 12 0 183 0
184 -80 0 -80 0 0 -201z"/>
<path d="M3280 4744 c0 -136 0 -136 23 -131 12 3 48 11 80 17 l57 11 0 120 0
119 -80 0 -80 0 0 -136z"/>
<path d="M3023 4397 l-703 -142 0 -1658 c0 -1576 1 -1659 18 -1652 9 4 58 9
107 12 160 9 316 -41 438 -141 l58 -47 63 15 c34 9 74 16 89 16 l27 0 0 920 0
920 40 0 40 0 0 200 0 200 280 0 280 0 0 750 c0 708 -1 750 -17 749 -10 -1
-334 -65 -720 -142z m-143 -637 l0 -240 -160 0 -160 0 0 240 0 240 160 0 160
0 0 -240z m640 0 l0 -240 -160 0 -160 0 0 240 0 240 160 0 160 0 0 -240z
m-640 -800 l0 -240 -160 0 -160 0 0 240 0 240 160 0 160 0 0 -240z m0 -800 l0
-240 -160 0 -160 0 0 240 0 240 160 0 160 0 0 -240z m0 -800 l0 -240 -160 0
-160 0 0 240 0 240 160 0 160 0 0 -240z"/>
<path d="M1040 3338 l0 -423 80 -42 80 -42 0 65 0 64 80 0 80 0 0 -80 0 -80
-62 0 -62 0 37 -38 c33 -33 47 -40 121 -54 46 -8 110 -27 141 -42 34 -15 75
-26 101 -26 41 0 44 -2 44 -27 0 -19 15 -40 60 -80 73 -66 158 -192 199 -294
159 -397 -10 -875 -371 -1050 l-48 -23 0 -67 0 -67 -240 -280 -240 -280 0
-116 0 -116 -80 0 -80 0 0 145 0 146 240 279 240 279 0 98 0 98 71 22 c91 30
160 75 234 154 115 124 169 271 169 459 0 203 -55 344 -188 475 -110 109 -231
165 -356 165 -43 0 -49 4 -125 78 -175 171 -384 208 -595 104 -85 -41 -209
-169 -253 -262 -55 -115 -71 -188 -71 -320 0 -188 54 -335 169 -459 74 -79
143 -124 234 -154 l71 -22 0 -48 0 -49 -32 22 c-79 52 -120 65 -208 65 -71 -1
-95 -5 -143 -27 -176 -82 -281 -307 -249 -531 23 -163 129 -315 256 -367 l56
-24 0 -163 0 -163 -160 0 -160 0 0 -80 0 -80 2480 0 2480 0 0 80 0 80 -155 0
c-85 0 -155 4 -155 9 0 4 -27 37 -59 73 -101 110 -238 166 -381 155 l-75 -6
-25 56 c-32 74 -123 171 -198 211 -152 81 -312 81 -463 1 -55 -29 -151 -119
-177 -164 -9 -17 -14 -18 -29 -8 -78 54 -118 67 -203 67 -85 0 -125 -13 -203
-67 -15 -10 -20 -9 -29 8 -26 45 -122 135 -177 164 -151 80 -311 80 -462 0
-77 -41 -162 -132 -200 -213 -30 -64 -30 -64 -62 -55 -18 5 -50 9 -72 9 -35 1
-44 6 -71 43 -20 27 -55 55 -95 77 -59 32 -71 35 -149 34 -100 0 -160 -24
-225 -89 -64 -64 -89 -125 -89 -222 l-1 -83 -76 0 c-88 0 -89 1 -89 84 0 254
224 476 480 476 103 0 231 -46 303 -110 l34 -30 29 41 c33 48 125 134 165 155
l29 15 0 1444 0 1445 -560 0 -560 0 0 -422z m320 182 l0 -80 -80 0 -80 0 0 80
0 80 80 0 80 0 0 -80z m320 0 l0 -80 -80 0 -80 0 0 80 0 80 80 0 80 0 0 -80z
m320 0 l0 -80 -80 0 -80 0 0 80 0 80 80 0 80 0 0 -80z m-640 -320 l0 -80 -80
0 -80 0 0 80 0 80 80 0 80 0 0 -80z m320 0 l0 -80 -80 0 -80 0 0 80 0 80 80 0
80 0 0 -80z m320 0 l0 -80 -80 0 -80 0 0 80 0 80 80 0 80 0 0 -80z m-320 -320
l0 -80 -80 0 -80 0 0 80 0 80 80 0 80 0 0 -80z m320 0 l0 -80 -80 0 -80 0 0
80 0 80 80 0 80 0 0 -80z m0 -320 l0 -80 -80 0 -80 0 0 80 0 80 80 0 80 0 0
-80z m-1120 -702 c-1 -376 -1 -383 -19 -360 -15 17 -30 22 -64 22 -83 0 -77
-30 -77 366 l0 354 80 0 80 0 0 -382z m182 -523 c40 -19 87 -38 105 -41 l33
-6 0 -70 0 -69 -152 -177 c-83 -97 -155 -181 -160 -186 -4 -6 -8 147 -8 338
l0 349 55 -52 c30 -29 86 -67 127 -86z m-342 -890 l0 -205 -80 0 -80 0 0 164
0 164 33 11 c17 6 52 25 77 41 25 16 46 30 48 30 1 0 2 -92 2 -205z"/>
<path d="M4240 3560 l0 -200 -40 0 -40 0 0 -240 0 -240 -400 0 -400 0 0 -120
0 -120 640 0 640 0 0 120 0 120 -80 0 -80 0 0 240 0 240 -40 0 -40 0 0 200 0
200 -80 0 -80 0 0 -200z"/>
<path d="M3280 1625 c0 -510 4 -855 9 -855 5 0 41 24 80 53 l71 52 0 723 0
722 560 0 560 0 0 -865 0 -865 25 -10 c14 -5 50 -25 80 -45 l55 -35 0 990 0
990 -720 0 -720 0 0 -855z"/>
<path d="M3600 1550 l0 -611 38 8 c48 10 196 10 245 0 l37 -8 0 611 0 610
-160 0 -160 0 0 -610z"/>
<path d="M4080 1518 l1 -643 50 -34 c53 -36 137 -123 165 -171 14 -23 25 -29
61 -32 l43 -3 0 762 0 763 -160 0 -160 0 0 -642z"/>
</g>
</svg>
