<?xml version="1.0" standalone="no"?>
<!DOCTYPE svg PUBLIC "-//W3C//DTD SVG 20010904//EN"
 "http://www.w3.org/TR/2001/REC-SVG-20010904/DTD/svg10.dtd">
<svg version="1.0" xmlns="http://www.w3.org/2000/svg"
 width="158.000000pt" height="165.000000pt" viewBox="0 0 158.000000 165.000000"
 preserveAspectRatio="xMidYMid meet">

<g transform="translate(0.000000,165.000000) scale(0.100000,-0.100000)"
fill="currentColor" stroke="none">
<path d="M137 1626 c-47 -17 -71 -38 -91 -81 -14 -29 -16 -116 -16 -714 0
-550 3 -688 14 -714 18 -44 77 -94 126 -107 26 -7 239 -10 652 -8 610 3 613 3
648 25 19 12 44 37 55 55 20 32 20 51 20 793 l0 760 -685 2 c-557 2 -692 0
-723 -11z m234 -115 l39 -39 0 -93 c0 -103 -9 -130 -53 -163 -22 -17 -47 -22
-113 -25 l-84 -3 0 181 0 181 86 0 86 0 39 -39z m329 14 c0 -25 -1 -25 -85
-25 l-85 0 0 -50 0 -50 75 0 c73 0 75 -1 75 -25 0 -24 -2 -25 -76 -25 l-75 0
3 -52 3 -53 83 -3 c80 -3 82 -3 82 -27 l0 -25 -115 0 -115 0 0 180 0 180 115
0 115 0 0 -25z m155 -85 c26 -60 50 -110 54 -110 3 0 26 49 51 108 40 96 48
107 73 110 l27 3 0 -181 0 -181 -27 3 -28 3 0 102 c0 56 -2 99 -4 97 -3 -2
-19 -37 -36 -77 -26 -58 -37 -73 -57 -75 -21 -3 -27 6 -58 79 l-35 82 -3 -106
-3 -107 -29 0 -30 0 0 180 0 180 29 0 c27 0 31 -7 76 -110z m515 85 c0 -25 -1
-25 -90 -25 l-90 0 0 -50 0 -50 75 0 c73 0 75 -1 75 -25 0 -23 -3 -24 -72 -27
l-73 -3 0 -50 0 -50 88 -3 c85 -3 88 -4 85 -25 -3 -21 -8 -22 -115 -25 l-113
-3 0 181 0 180 115 0 115 0 0 -25z m-960 -429 c0 -23 -5 -25 -47 -28 l-48 -3
-5 -155 c-5 -151 -6 -155 -27 -158 -22 -3 -23 -2 -25 155 l-3 158 -47 3 c-43
3 -48 5 -48 28 l0 24 125 0 125 0 0 -24z m173 -73 c20 -54 49 -135 66 -181
l30 -83 -31 3 c-26 2 -33 9 -43 38 l-12 35 -68 0 -68 0 -12 -34 c-13 -39 -35
-57 -59 -48 -14 6 -13 13 10 74 14 37 44 119 66 181 35 98 43 112 63 112 20 0
28 -13 58 -97z m187 -58 l0 -155 91 0 90 0 -3 -26 -3 -26 -113 -1 -112 -2 0
183 0 182 25 0 25 0 0 -155z m280 -25 l0 -180 -25 0 -25 0 0 180 0 180 25 0
25 0 0 -180z m-383 -304 c18 -20 33 -43 33 -51 0 -25 -50 -18 -72 10 -24 30
-66 33 -99 6 -22 -18 -24 -27 -24 -106 0 -79 2 -88 24 -106 33 -27 75 -24 99
6 20 25 72 35 72 14 0 -42 -69 -99 -119 -99 -35 0 -86 26 -109 55 -19 24 -22
40 -22 130 0 90 3 106 22 130 51 65 141 70 195 11z m279 1 c37 -40 50 -106 39
-193 -16 -130 -150 -178 -230 -83 -23 28 -25 38 -25 133 0 91 3 107 22 131 51
65 141 70 194 12z m300 17 c20 -13 21 -19 11 -35 -8 -14 -18 -18 -32 -14 -55
17 -102 17 -118 0 -28 -27 -21 -54 18 -71 19 -7 44 -14 55 -14 87 0 131 -106
71 -172 -28 -31 -33 -33 -98 -33 -50 0 -77 5 -100 20 -37 22 -38 24 -20 49 13
17 15 17 45 2 36 -19 113 -21 130 -4 16 16 15 53 -1 67 -8 6 -38 16 -67 21
-30 6 -64 19 -76 31 -49 46 -33 137 28 164 39 18 118 12 154 -11z m3 -398 c49
-26 68 -108 35 -155 -61 -86 -194 -42 -194 63 1 84 82 131 159 92z"/>
<path d="M212 1373 l3 -128 49 2 c75 2 91 24 91 124 0 76 -2 82 -28 105 -21
18 -40 24 -73 24 l-45 0 3 -127z"/>
<path d="M502 966 c-12 -35 -22 -66 -22 -70 0 -3 20 -6 45 -6 25 0 45 4 45 8
0 10 -41 132 -44 132 -1 0 -12 -29 -24 -64z"/>
<path d="M804 599 c-15 -17 -19 -37 -19 -104 0 -97 16 -125 70 -125 54 0 70
28 70 125 0 97 -16 125 -70 125 -20 0 -39 -8 -51 -21z"/>
<path d="M1133 228 c-28 -32 -34 -66 -18 -104 44 -106 207 -40 166 68 -16 42
-39 58 -85 58 -31 0 -48 -6 -63 -22z m101 -14 c20 -19 20 -29 1 -48 -13 -12
-14 -20 -5 -37 18 -33 1 -36 -25 -4 l-24 30 -1 -28 c0 -18 -5 -27 -12 -25 -8
3 -14 28 -16 66 l-3 62 35 0 c19 0 42 -7 50 -16z"/>
<path d="M1180 190 c0 -15 5 -20 18 -18 9 2 17 10 17 18 0 8 -8 16 -17 18 -13
2 -18 -3 -18 -18z"/>
</g>
</svg>
