<?xml version="1.0" standalone="no"?>
<!DOCTYPE svg PUBLIC "-//W3C//DTD SVG 20010904//EN"
 "http://www.w3.org/TR/2001/REC-SVG-20010904/DTD/svg10.dtd">
<svg version="1.0" xmlns="http://www.w3.org/2000/svg"
 width="512.000000pt" height="512.000000pt" viewBox="0 0 512.000000 512.000000"
 preserveAspectRatio="xMidYMid meet">

<g transform="translate(0.000000,512.000000) scale(0.100000,-0.100000)"
fill="currentColor" stroke="none">
<path d="M2165 4228 c-75 -26 -139 -98 -158 -177 l-12 -51 -734 0 c-547 0
-744 -3 -775 -12 -55 -16 -138 -99 -154 -154 -9 -32 -12 -409 -12 -1618 l0
-1576 -55 0 c-46 0 -60 -4 -80 -25 -25 -24 -25 -26 -25 -215 0 -189 0 -191 25
-215 20 -21 34 -25 80 -25 l55 0 0 -80 0 -80 80 0 80 0 0 80 0 80 2080 0 2080
0 0 -80 0 -80 80 0 80 0 0 80 0 80 55 0 c46 0 60 4 80 25 25 24 25 26 25 215
0 189 0 191 -25 215 -20 21 -34 25 -80 25 l-55 0 0 1576 c0 1189 -3 1586 -12
1616 -6 22 -31 62 -55 88 -57 63 -106 80 -235 80 -84 0 -98 2 -98 16 0 76 -80
182 -157 208 -97 33 -175 15 -248 -59 -47 -47 -75 -102 -75 -149 0 -13 -13
-16 -80 -16 -67 0 -80 3 -80 16 0 76 -80 182 -157 208 -97 33 -175 15 -248
-59 -47 -47 -75 -102 -75 -149 0 -13 -13 -16 -80 -16 -67 0 -80 3 -80 16 0 76
-80 182 -157 208 -97 33 -175 15 -248 -59 -47 -47 -75 -102 -75 -149 0 -13
-13 -16 -80 -16 -67 0 -80 3 -80 16 0 76 -80 182 -157 208 -52 18 -113 20
-158 4z m130 -173 c45 -44 35 -55 -55 -55 -65 0 -80 3 -80 15 0 27 47 65 80
65 19 0 40 -9 55 -25z m640 0 c45 -44 35 -55 -55 -55 -65 0 -80 3 -80 15 0 27
47 65 80 65 19 0 40 -9 55 -25z m640 0 c45 -44 35 -55 -55 -55 -65 0 -80 3
-80 15 0 27 47 65 80 65 19 0 40 -9 55 -25z m640 0 c45 -44 35 -55 -55 -55
-65 0 -80 3 -80 15 0 27 47 65 80 65 19 0 40 -9 55 -25z m-2295 -300 c0 -65
-3 -85 -14 -85 -7 0 -45 -16 -83 -35 -86 -43 -144 -103 -186 -193 l-32 -67 -3
-247 -4 -248 -183 0 -184 0 25 72 c13 39 24 81 24 92 0 12 -34 73 -76 135
l-77 115 17 70 c33 143 13 220 -72 281 -38 26 -52 30 -112 30 -60 0 -74 -4
-112 -30 -85 -61 -105 -138 -72 -281 l17 -70 -77 -115 c-42 -62 -76 -123 -76
-135 0 -11 11 -53 24 -92 l25 -72 -105 0 -104 0 0 455 0 456 25 24 24 25 696
0 695 0 0 -85z m335 55 c-8 -16 -15 -52 -15 -80 l0 -50 -80 0 -80 0 0 80 0 80
95 0 96 0 -16 -30z m640 0 c-8 -16 -15 -52 -15 -80 l0 -50 -240 0 -240 0 0 30
c0 17 11 53 25 80 l25 50 230 0 231 0 -16 -30z m640 0 c-8 -16 -15 -52 -15
-80 l0 -50 -240 0 -240 0 0 30 c0 17 11 53 25 80 l25 50 230 0 231 0 -16 -30z
m640 0 c-8 -16 -15 -52 -15 -80 l0 -50 -240 0 -240 0 0 30 c0 17 11 53 25 80
l25 50 230 0 231 0 -16 -30z m440 5 c21 -20 25 -34 25 -86 0 -59 -1 -61 -22
-55 -13 3 -85 6 -160 6 l-138 0 0 30 c0 17 11 53 25 80 l25 50 111 0 c103 0
111 -1 134 -25z m-3627 -307 c25 -25 2 -148 -28 -148 -13 0 -21 13 -29 44 -20
79 -10 116 29 116 9 0 21 -5 28 -12z m1092 -44 c0 -31 5 -74 12 -96 14 -48 76
-121 118 -138 l30 -12 0 -465 0 -464 25 -24 c23 -24 29 -25 160 -25 l135 0 0
-80 0 -80 -240 0 -240 0 0 520 0 520 -80 0 -80 0 0 -120 0 -120 -80 0 -80 0 0
216 c0 257 5 279 75 349 57 58 94 73 183 74 l62 1 0 -56z m207 -4 c-16 -33
-34 -57 -38 -54 -5 3 -9 30 -9 60 l0 54 38 0 39 0 -30 -60z m433 4 c0 -31 5
-74 12 -96 14 -48 76 -121 118 -138 l30 -12 0 -169 0 -169 -80 0 -80 0 0 120
0 120 -80 0 -80 0 0 -360 0 -360 -80 0 -80 0 0 456 c0 329 3 468 12 498 15 51
99 137 148 153 19 6 63 11 98 12 l62 1 0 -56z m207 -4 c-16 -33 -34 -57 -38
-54 -5 3 -9 30 -9 60 l0 54 38 0 39 0 -30 -60z m433 4 c0 -31 5 -74 12 -96 14
-48 76 -121 118 -138 l30 -12 0 -225 0 -224 25 -24 c23 -24 29 -25 160 -25
l135 0 0 -320 0 -320 -240 0 -240 0 0 520 0 520 -80 0 -80 0 0 -120 0 -120
-80 0 -80 0 0 216 c0 257 5 279 75 349 57 58 94 73 183 74 l62 1 0 -56z m207
-4 c-16 -33 -34 -57 -38 -54 -5 3 -9 30 -9 60 l0 54 38 0 39 0 -30 -60z m433
4 c0 -87 18 -133 75 -189 101 -102 229 -102 330 0 57 56 75 102 75 189 l0 56
55 0 c46 0 60 -4 80 -25 l25 -24 0 -296 0 -295 -320 0 -320 0 0 120 0 120 -80
0 -80 0 0 -120 0 -120 -80 0 -80 0 0 216 c0 257 5 279 75 349 57 58 94 73 183
74 l62 1 0 -56z m320 1 c0 -67 -29 -105 -80 -105 -51 0 -80 38 -80 105 l0 55
80 0 80 0 0 -55z m-3266 -351 l57 -86 -24 -71 -24 -72 -103 0 -103 0 -24 72
-24 71 57 86 c54 82 59 86 94 86 35 0 40 -4 94 -86z m866 -874 l0 -480 -84 0
-84 0 5 63 c4 54 1 69 -25 120 l-29 57 29 56 c47 95 34 183 -39 264 -71 79
-79 80 -491 80 -249 0 -367 -4 -396 -12 -55 -16 -138 -99 -154 -154 -22 -75
-12 -146 30 -206 19 -28 19 -28 0 -55 -31 -45 -45 -101 -39 -159 l6 -54 -85 0
-84 0 0 480 0 480 720 0 720 0 0 -480z m1280 400 l0 -80 -240 0 -240 0 0 80 0
80 240 0 240 0 0 -80z m1440 0 l0 -80 -320 0 -320 0 0 80 0 80 320 0 320 0 0
-80z m-1440 -400 l0 -160 -240 0 -240 0 0 160 0 160 240 0 240 0 0 -160z
m1440 0 l0 -160 -320 0 -320 0 0 160 0 160 320 0 320 0 0 -160z m-3065 -25
c16 -15 25 -36 25 -55 0 -19 -9 -40 -25 -55 l-24 -25 -351 0 -351 0 -24 25
c-16 15 -25 36 -25 55 0 19 9 40 25 55 l24 25 351 0 351 0 24 -25z m0 -320
c16 -15 25 -36 25 -55 0 -19 -9 -40 -25 -55 l-24 -25 -351 0 -351 0 -24 25
c-16 15 -25 36 -25 55 0 19 9 40 25 55 l24 25 351 0 351 0 24 -25z m3065 -615
l0 -640 -101 0 c-92 0 -101 2 -94 17 32 78 35 112 35 420 l0 314 -25 24 c-20
21 -34 25 -85 25 -44 0 -60 4 -60 14 0 7 -16 45 -35 83 -43 86 -103 144 -193
186 -61 29 -76 32 -162 32 -86 0 -101 -3 -162 -32 -90 -42 -150 -100 -193
-186 -19 -38 -35 -76 -35 -83 0 -10 -16 -14 -60 -14 -51 0 -65 -4 -85 -25 -24
-23 -25 -29 -25 -160 l0 -135 -135 0 c-131 0 -137 -1 -160 -25 -25 -24 -25
-24 -25 -240 l0 -215 -80 0 -80 0 0 -80 0 -80 960 0 960 0 0 -80 0 -80 -2240
0 -2240 0 0 80 0 80 1040 0 1040 0 0 80 0 80 -160 0 -160 0 0 640 0 640 1280
0 1280 0 0 -640z m-2720 -160 l0 -480 -80 0 -80 0 0 295 0 296 -25 24 -24 25
-511 0 -511 0 -24 -25 -25 -24 0 -296 0 -295 -80 0 -80 0 0 480 0 480 720 0
720 0 0 -480z m2071 468 c60 -17 149 -103 149 -143 0 -3 -99 -5 -220 -5 -121
0 -220 3 -220 8 0 17 41 72 74 98 64 52 139 66 217 42z m329 -468 l0 -160
-320 0 -320 0 0 -80 0 -80 321 0 322 0 -7 -32 c-7 -39 -31 -74 -70 -102 -26
-20 -40 -21 -326 -21 -286 0 -300 1 -326 21 -15 11 -37 33 -48 48 -20 26 -21
43 -24 297 l-3 269 401 0 400 0 0 -160z m-2720 -240 l0 -240 -400 0 -400 0 0
240 0 240 400 0 400 0 0 -240z m1760 -18 c0 -88 10 -144 35 -204 7 -16 -2 -18
-94 -18 l-101 0 0 160 0 160 80 0 80 0 0 -98z"/>
<path d="M2560 560 l0 -80 80 0 80 0 0 80 0 80 -80 0 -80 0 0 -80z"/>
<path d="M1040 880 l0 -80 160 0 160 0 0 80 0 80 -160 0 -160 0 0 -80z"/>
</g>
</svg>
