<?xml version="1.0" standalone="no"?>
<!DOCTYPE svg PUBLIC "-//W3C//DTD SVG 20010904//EN"
 "http://www.w3.org/TR/2001/REC-SVG-20010904/DTD/svg10.dtd">
<svg version="1.0" xmlns="http://www.w3.org/2000/svg"
 width="512.000000pt" height="512.000000pt" viewBox="0 0 512.000000 512.000000"
 preserveAspectRatio="xMidYMid meet">

<g transform="translate(0.000000,512.000000) scale(0.100000,-0.100000)"
fill="currentColor" stroke="none">
<path d="M1317 4945 c-577 -94 -1019 -521 -1134 -1093 -25 -124 -24 -385 1
-507 22 -107 76 -265 118 -349 179 -356 500 -614 882 -711 l91 -23 3 -91 3
-91 -56 0 c-46 0 -60 -4 -81 -25 l-25 -25 3 -783 3 -783 37 -76 c45 -91 103
-147 196 -191 61 -29 76 -32 162 -32 86 0 101 3 162 32 93 44 151 100 196 191
l37 76 3 300 3 300 40 -74 c73 -134 142 -223 274 -356 90 -91 161 -151 230
-197 310 -205 677 -301 1023 -269 233 22 402 71 602 173 556 285 896 869 867
1489 -35 747 -561 1354 -1301 1502 -159 32 -433 32 -592 0 -61 -12 -137 -31
-168 -42 l-58 -20 5 23 c36 150 43 405 14 551 -99 496 -443 892 -907 1046
-187 61 -453 85 -633 55z m463 -174 c414 -94 750 -399 879 -798 44 -138 56
-215 56 -373 0 -83 -6 -175 -14 -215 -96 -488 -450 -849 -943 -962 -101 -23
-373 -23 -476 0 -244 56 -438 161 -608 331 -174 174 -287 386 -335 631 -21
103 -18 349 5 455 77 357 306 660 623 822 136 70 250 106 418 132 68 10 312
-4 395 -23z m1675 -1595 c128 -60 255 -260 338 -534 l26 -83 -24 -9 c-153 -58
-412 -83 -610 -59 -78 10 -272 52 -281 62 -7 6 56 195 92 279 98 228 236 368
364 368 26 0 66 -10 95 -24z m-501 -93 c-62 -92 -137 -250 -175 -367 -17 -53
-34 -96 -38 -96 -10 0 -173 95 -175 102 0 3 25 42 57 86 31 44 80 123 108 175
45 87 54 97 92 111 82 31 152 55 164 55 7 1 -8 -29 -33 -66z m873 36 c121 -43
245 -105 351 -178 100 -69 127 -94 117 -111 -20 -33 -308 -220 -320 -209 -2 3
-18 47 -35 99 -38 115 -113 273 -174 363 -25 37 -42 67 -37 67 5 0 49 -14 98
-31z m646 -451 c168 -199 288 -482 315 -750 l8 -78 -358 0 -358 0 0 23 c0 104
-44 483 -66 571 -5 22 2 28 78 66 90 46 195 115 273 178 28 23 53 41 57 42 3
0 27 -24 51 -52z m-1923 -125 c30 -19 79 -46 108 -60 47 -23 53 -29 47 -50
-21 -87 -65 -467 -65 -570 l0 -23 -358 0 -359 0 3 28 c18 164 44 281 94 414
21 56 22 57 118 108 106 57 192 115 262 178 44 39 46 40 70 24 14 -9 50 -31
80 -49z m359 -158 c143 -50 429 -76 611 -56 92 11 275 48 321 66 14 5 19 -14
38 -132 17 -112 41 -350 41 -409 0 -12 -96 -14 -560 -14 l-560 0 0 23 c1 92
54 537 65 537 1 0 21 -7 44 -15z m-1070 -132 c-6 -16 -19 -59 -29 -98 -12 -48
-23 -71 -34 -73 -15 -3 -16 7 -14 90 l3 93 30 6 c55 12 55 11 44 -18z m-239
-93 l0 -80 -80 0 -80 0 0 80 0 80 80 0 80 0 0 -80z m160 -936 c0 -518 -3 -707
-12 -738 -26 -86 -136 -166 -228 -166 -92 0 -202 80 -228 166 -9 31 -12 220
-12 738 l0 696 240 0 240 0 0 -696z m880 433 c0 -103 44 -483 65 -570 6 -22
-1 -28 -76 -66 -92 -47 -174 -101 -268 -175 l-64 -50 -40 44 c-167 187 -297
492 -325 763 l-8 77 358 0 358 0 0 -23z m1275 -64 c-17 -236 -52 -476 -69
-470 -128 48 -285 71 -486 71 -201 0 -358 -23 -486 -71 -18 -7 -73 395 -74
535 l0 22 561 0 561 0 -7 -87z m873 10 c-28 -270 -157 -574 -325 -763 l-40
-44 -64 50 c-92 73 -172 125 -267 175 -74 39 -82 46 -77 66 21 87 65 467 65
570 l0 23 358 0 358 0 -8 -77z m-1233 -578 c101 -15 188 -35 237 -54 l27 -10
-26 -83 c-61 -201 -140 -355 -232 -452 -75 -78 -119 -100 -201 -100 -82 0
-126 22 -201 100 -92 97 -171 251 -232 452 l-26 83 27 10 c157 60 429 84 627
54z m-776 -221 c38 -117 113 -275 175 -366 25 -38 42 -68 37 -68 -23 0 -195
67 -276 107 -88 45 -259 156 -284 187 -7 8 -10 20 -6 26 18 29 291 210 316
210 4 0 21 -43 38 -96z m1299 42 c89 -53 205 -136 218 -157 23 -38 -266 -216
-469 -288 -49 -17 -93 -31 -98 -31 -5 0 12 30 37 68 62 91 137 249 175 366 17
53 34 96 38 96 4 0 48 -24 99 -54z"/>
<path d="M1345 4624 c-445 -79 -776 -416 -851 -866 -54 -326 60 -666 303 -901
87 -85 142 -124 252 -181 296 -152 634 -153 936 -3 104 51 193 118 280 209 89
92 132 152 182 253 150 302 149 640 -3 936 -58 112 -97 167 -185 257 -238 243
-583 355 -914 296z m325 -158 c184 -33 336 -113 470 -246 297 -298 344 -748
114 -1102 -117 -182 -305 -314 -530 -374 -103 -27 -312 -26 -419 3 -413 112
-685 482 -662 898 25 428 335 763 767 828 58 9 190 5 260 -7z"/>
<path d="M1394 4309 c-140 -23 -266 -91 -379 -204 -125 -125 -194 -267 -210
-433 l-8 -72 80 0 79 0 12 81 c35 240 230 436 470 471 l82 12 0 78 0 78 -37
-1 c-21 -1 -61 -5 -89 -10z"/>
<path d="M1440 1680 l0 -80 80 0 80 0 0 80 0 80 -80 0 -80 0 0 -80z"/>
<path d="M1440 960 l0 -480 80 0 80 0 0 480 0 480 -80 0 -80 0 0 -480z"/>
<path d="M3065 4935 l-25 -24 0 -671 0 -671 25 -24 24 -25 911 0 911 0 24 25
25 24 0 671 0 671 -25 24 -24 25 -911 0 -911 0 -24 -25z m1735 -695 l0 -560
-800 0 -800 0 0 560 0 560 800 0 800 0 0 -560z"/>
<path d="M3360 4560 l0 -80 160 0 160 0 0 80 0 80 -160 0 -160 0 0 -80z"/>
<path d="M3840 4560 l0 -80 400 0 400 0 0 80 0 80 -400 0 -400 0 0 -80z"/>
<path d="M3360 4240 l0 -80 640 0 640 0 0 80 0 80 -640 0 -640 0 0 -80z"/>
<path d="M3360 3920 l0 -80 400 0 400 0 0 80 0 80 -400 0 -400 0 0 -80z"/>
<path d="M4320 3920 l0 -80 160 0 160 0 0 80 0 80 -160 0 -160 0 0 -80z"/>
</g>
</svg>
