<?xml version="1.0" standalone="no"?>
<!DOCTYPE svg PUBLIC "-//W3C//DTD SVG 20010904//EN"
 "http://www.w3.org/TR/2001/REC-SVG-20010904/DTD/svg10.dtd">
<svg version="1.0" xmlns="http://www.w3.org/2000/svg"
 width="512.000000pt" height="512.000000pt" viewBox="0 0 512.000000 512.000000"
 preserveAspectRatio="xMidYMid meet">

<g transform="translate(0.000000,512.000000) scale(0.100000,-0.100000)"
fill="currentColor" stroke="none">
<path d="M2792 4800 c-12 -11 -24 -31 -27 -43 -7 -28 0 -276 10 -332 6 -37 4
-42 -21 -55 -35 -19 -99 -100 -114 -145 l-12 -35 -63 0 -64 0 -3 143 c-3 123
-6 146 -23 169 -43 59 -14 57 -952 57 -949 0 -899 4 -947 -62 -18 -25 -21 -46
-24 -168 l-4 -139 -253 0 -254 0 -20 -26 -21 -27 0 -1892 0 -1892 21 -27 20
-26 2519 0 2519 0 20 26 21 27 0 1892 0 1892 -21 27 -20 26 -259 0 -259 0 -24
54 c-24 51 -98 136 -119 136 -6 0 -7 17 -3 43 4 23 9 108 11 190 l5 148 -30
29 -29 30 -182 0 c-180 0 -181 0 -206 -25 -25 -25 -25 -25 -21 -183 2 -86 7
-170 12 -186 7 -25 3 -32 -36 -65 l-43 -38 -42 31 c-34 25 -43 37 -43 63 -1
17 4 35 9 38 14 9 13 291 -2 318 -23 44 -35 46 -226 47 -182 0 -183 0 -208
-25 -25 -25 -25 -25 -21 -183 3 -86 7 -173 11 -192 5 -32 3 -37 -37 -65 l-42
-31 -42 31 c-40 28 -42 33 -37 65 4 19 8 106 11 192 4 158 4 158 -21 183 -25
25 -26 25 -209 25 -170 0 -185 -1 -205 -20z m288 -185 l0 -55 -85 0 -85 0 0
55 0 55 85 0 85 0 0 -55z m600 0 l0 -55 -85 0 -85 0 0 55 0 55 85 0 85 0 0
-55z m600 0 l0 -55 -85 0 -85 0 0 55 0 55 85 0 85 0 0 -55z m-3130 -350 l0
-144 -52 20 c-29 11 -129 48 -223 82 l-170 62 -3 49 c-5 81 -19 76 228 76
l220 0 0 -145z m600 0 l0 -145 -47 19 c-27 10 -128 47 -225 82 l-178 64 0 63
0 62 225 0 225 0 0 -145z m600 0 l0 -144 -77 28 c-43 16 -144 53 -225 82
l-148 54 0 63 0 62 225 0 225 0 0 -145z m710 120 c0 -48 28 -93 78 -130 83
-59 82 -54 82 -515 l0 -400 -225 0 -225 0 0 400 c0 317 3 408 14 433 7 18 38
55 69 81 54 46 77 85 77 132 0 23 3 24 65 24 63 0 65 -1 65 -25z m600 0 c0
-46 27 -92 74 -126 87 -64 86 -58 86 -517 l0 -402 -225 0 -225 0 0 400 c0 461
-1 456 82 515 50 37 78 82 78 130 0 24 2 25 65 25 63 0 65 -1 65 -25z m600 -5
c0 -46 22 -81 84 -134 38 -32 58 -58 66 -84 5 -20 10 -115 10 -209 0 -160 2
-175 20 -193 28 -28 75 -26 105 5 24 23 25 30 25 150 l0 125 60 0 60 0 0 -350
0 -350 -59 0 -59 0 -4 81 c-3 70 -6 83 -27 100 -30 25 -62 24 -95 -2 -24 -19
-26 -26 -26 -100 l0 -79 -225 0 -225 0 0 406 c0 460 -1 452 77 506 46 31 82
91 83 136 0 21 4 22 65 22 l65 0 0 -30z m-3330 -339 l215 -79 3 -96 c2 -73 0
-96 -10 -95 -7 0 -107 35 -223 78 l-210 78 -3 96 c-1 54 1 97 5 97 5 0 105
-35 223 -79z m600 0 l215 -79 3 -100 3 -99 -223 81 -223 82 -3 97 c-1 53 1 97
5 97 4 0 105 -36 223 -79z m542 20 c90 -33 189 -69 221 -81 l57 -21 0 -95 c0
-85 -2 -95 -17 -92 -10 2 -111 37 -225 78 l-208 75 0 98 c0 53 2 97 4 97 3 0
78 -27 168 -59z m-1792 -711 l0 -691 25 -24 c13 -14 36 -25 50 -25 14 0 37 11
50 25 24 23 25 30 25 150 l0 125 369 0 c305 0 375 -3 404 -15 30 -12 91 -15
322 -15 231 0 292 3 322 15 30 13 133 15 713 15 580 0 683 -2 713 -15 53 -22
591 -22 644 0 41 17 149 19 531 8 l242 -6 0 -809 0 -808 -79 0 -80 0 15 35
c11 28 14 97 14 357 0 278 -3 335 -19 408 -16 73 -17 87 -5 105 22 30 17 73
-11 100 l-24 25 -909 0 c-905 0 -909 0 -936 -21 -29 -23 -35 -72 -12 -104 11
-15 10 -30 -5 -99 -16 -70 -19 -128 -19 -416 0 -272 3 -340 14 -362 l15 -28
-74 0 -74 0 -3 427 c-2 350 -6 433 -18 458 -28 59 -69 112 -105 136 -33 22
-36 27 -29 59 3 19 8 104 11 188 l4 153 -30 29 -29 30 -180 0 -179 0 -27 -27
-27 -27 4 -155 c3 -86 7 -172 11 -191 5 -32 3 -37 -37 -65 l-42 -31 -42 31
c-40 28 -42 33 -37 65 4 19 8 105 11 191 l4 155 -27 27 -27 27 -179 0 -180 0
-29 -30 -30 -29 4 -153 c3 -84 8 -169 11 -188 6 -33 3 -37 -37 -66 l-43 -32
-43 38 c-40 33 -43 40 -36 66 5 16 10 100 12 186 4 158 4 158 -21 183 -25 25
-26 25 -206 25 l-182 0 -29 -30 -30 -29 5 -148 c2 -82 7 -166 11 -189 6 -36 4
-42 -19 -57 -43 -29 -77 -70 -105 -127 l-26 -55 -3 -422 -3 -423 -60 0 -59 0
0 540 0 541 -25 24 c-31 32 -69 32 -100 0 l-25 -24 0 -956 0 -955 -65 0 -65 0
0 1795 0 1795 65 0 65 0 0 -690z m270 340 l0 -350 -60 0 -60 0 0 350 0 350 60
0 60 0 0 -350z m2070 0 l0 -350 -60 0 -60 0 0 350 0 350 60 0 60 0 0 -350z
m2350 -1445 l0 -1795 -65 0 -65 0 0 1795 0 1795 65 0 65 0 0 -1795z m-4039
1437 l214 -79 3 -131 3 -132 -226 0 -225 0 0 210 c0 116 4 210 8 210 5 0 105
-35 223 -78z m599 0 l215 -79 3 -131 3 -132 -226 0 -225 0 0 210 c0 116 4 210
8 210 4 0 104 -35 222 -78z m600 -1 l215 -78 3 -132 3 -131 -226 0 -225 0 0
210 c0 116 3 210 8 210 4 0 104 -36 222 -79z m-980 -556 l0 -65 -360 0 -360 0
0 65 0 65 360 0 360 0 0 -65z m600 -15 l0 -80 -225 0 -225 0 0 80 0 80 225 0
225 0 0 -80z m1468 13 l3 -63 -661 0 -660 0 0 58 c0 32 3 62 7 65 3 4 299 6
657 5 l651 -3 3 -62z m602 -13 l0 -80 -225 0 -225 0 0 80 0 80 225 0 225 0 0
-80z m870 15 l0 -65 -360 0 -360 0 0 65 0 65 360 0 360 0 0 -65z m-3680 -570
l0 -55 -85 0 -85 0 0 55 0 55 85 0 85 0 0 -55z m600 0 l0 -55 -85 0 -85 0 0
55 0 55 85 0 85 0 0 -55z m600 0 l0 -55 -85 0 -85 0 0 55 0 55 85 0 85 0 0
-55z m-1216 -246 c8 -53 29 -83 81 -119 45 -31 75 -81 75 -124 l0 -26 -225 0
c-246 0 -233 -4 -215 62 8 26 28 52 66 84 62 53 84 88 84 134 l0 30 64 0 63 0
7 -41z m596 16 c0 -46 27 -92 74 -126 46 -35 86 -98 86 -137 0 -22 0 -22 -225
-22 -220 0 -225 0 -225 20 0 41 28 87 80 130 54 45 80 89 80 135 0 24 2 25 65
25 63 0 65 -1 65 -25z m600 -5 c0 -46 22 -81 84 -134 38 -32 58 -58 66 -84 18
-66 31 -62 -215 -62 -225 0 -225 0 -225 22 0 39 40 102 86 137 47 34 74 80 74
126 0 24 2 25 65 25 l65 0 0 -30z m999 -204 c20 -82 36 -76 -198 -76 l-209 0
8 33 c4 17 11 44 14 60 l6 27 184 0 184 0 11 -44z m591 14 c4 -14 10 -40 13
-57 l7 -33 -210 0 c-116 0 -210 3 -210 8 0 7 18 76 25 100 4 10 46 12 187 10
l182 -3 6 -25z m599 -14 c20 -82 36 -76 -198 -76 l-209 0 8 33 c4 17 11 44 14
60 l6 27 184 0 184 0 11 -44z m-3229 -361 l0 -135 -222 2 -223 3 -3 119 c-1
66 0 126 2 133 4 10 53 13 226 13 l220 0 0 -135z m600 0 l0 -135 -225 0 -225
0 0 135 0 135 225 0 225 0 0 -135z m600 0 l0 -135 -225 0 -225 0 0 135 0 135
225 0 225 0 0 -135z m860 108 c0 -25 -13 -35 -137 -103 -76 -41 -172 -94 -215
-118 l-78 -43 0 145 0 146 215 0 215 0 0 -27z m598 1 c-3 -22 -31 -42 -208
-141 -113 -63 -211 -117 -217 -120 -10 -4 -13 28 -13 141 l0 146 221 0 220 0
-3 -26z m592 -1 c0 -25 -13 -35 -137 -103 -76 -41 -172 -94 -215 -118 l-78
-43 0 145 0 146 215 0 215 0 0 -27z m-1215 -543 l-25 -40 -168 0 -167 0 -23
44 c-44 82 -43 84 193 215 l210 117 3 -148 c2 -143 2 -149 -23 -188z m598 6
l-28 -46 -166 0 -167 0 -26 44 c-48 82 -52 78 192 213 l217 121 3 -143 c2
-141 2 -144 -25 -189z m592 -6 l-25 -40 -165 0 -165 0 -25 41 c-17 26 -25 51
-23 71 3 28 17 38 213 147 l210 117 3 -148 c2 -143 2 -149 -23 -188z m-3225
55 l0 -95 -225 0 -225 0 0 95 0 95 225 0 225 0 0 -95z m600 0 l0 -95 -225 0
-225 0 0 95 0 95 225 0 225 0 0 -95z m600 0 l0 -95 -225 0 -225 0 0 95 0 95
225 0 225 0 0 -95z m-1205 -315 l0 -65 -357 -3 -358 -2 0 70 0 70 358 -2 357
-3 0 -65z m605 -10 l0 -80 -225 0 -225 0 0 80 0 80 225 0 225 0 0 -80z m1465
10 l0 -65 -162 -3 c-161 -2 -162 -3 -182 -29 -27 -33 -27 -63 -1 -91 12 -12
22 -23 23 -24 1 -1 90 -5 197 -10 215 -10 609 -11 1208 -3 l392 5 0 -195 0
-195 -2130 0 -2130 0 0 195 0 195 393 -5 c774 -10 1751 0 1790 19 37 18 49 76
23 112 -14 18 -33 19 -373 24 l-358 5 -3 54 c-2 29 -1 60 2 67 5 12 111 14
658 12 l653 -3 0 -65z m605 -10 l0 -80 -225 0 -225 0 0 80 0 80 225 0 225 0 0
-80z m870 10 l0 -70 -357 2 -358 3 -3 54 c-2 29 -1 60 2 67 4 12 69 14 361 14
l355 0 0 -70z"/>
<path d="M2941 4104 c-20 -26 -21 -38 -21 -314 0 -266 1 -290 19 -311 13 -17
29 -23 56 -23 27 0 43 6 56 23 18 22 19 45 19 317 0 281 -1 295 -20 314 -30
30 -83 27 -109 -6z"/>
<path d="M3540 4108 c-19 -21 -20 -34 -20 -314 0 -270 1 -293 19 -315 13 -17
29 -23 56 -23 27 0 43 6 56 23 18 21 19 45 19 311 0 276 -1 288 -21 314 -27
34 -79 36 -109 4z"/>
<path d="M4140 4110 c-19 -19 -20 -33 -20 -315 l0 -296 25 -24 c27 -28 42 -30
78 -14 44 20 47 43 47 338 0 266 -1 279 -21 305 -26 33 -79 36 -109 6z"/>
</g>
</svg>
