<svg
  xmlns="http://www.w3.org/2000/svg"
  viewBox="0 0 35.1 35.1"
  width="24"
  height="24"
  fill="currentColor"
>
  <path d="M17.5,4c3.6,0,7,1.4,9.6,4s4,6,4,9.6c0,3.6-1.4,7-4,9.6c-2.6,2.6-6,4-9.6,4c-3.6,0-7-1.4-9.6-4c-2.6-2.6-4-6-4-9.6c0-3.6,1.4-7,4-9.6C10.5,5.4,13.9,4,17.5,4 M17.5,0c-4.5,0-9,1.7-12.4,5.1c-6.9,6.9-6.9,18,0,24.8c3.4,3.4,7.9,5.1,12.4,5.1c4.5,0,9-1.7,12.4-5.1c6.9-6.9,6.9-18,0-24.8C26.5,1.7,22,0,17.5,0z"/>
  <path d="M17.5,27.1c-5.3,0-9.7-4.4-9.7-9.7h3.3c0,3.5,2.8,6.4,6.4,6.4s6.4-2.8,6.4-6.4h3.3C27.2,22.7,22.9,27.1,17.5,27.1z"/>
</svg>
