<?xml version="1.0" standalone="no"?>
<!DOCTYPE svg PUBLIC "-//W3C//DTD SVG 20010904//EN"
 "http://www.w3.org/TR/2001/REC-SVG-20010904/DTD/svg10.dtd">
<svg version="1.0" xmlns="http://www.w3.org/2000/svg"
 width="512.000000pt" height="512.000000pt" viewBox="0 0 512.000000 512.000000"
 preserveAspectRatio="xMidYMid meet">

<g transform="translate(0.000000,512.000000) scale(0.100000,-0.100000)"
fill="currentColor" stroke="none">
<path d="M2512 4943 c-11 -10 -55 -81 -97 -158 -43 -77 -78 -141 -79 -142 -1
-1 -85 -13 -186 -27 -172 -23 -187 -27 -207 -51 -47 -54 -37 -72 116 -207 69
-61 127 -116 129 -122 1 -6 -11 -80 -27 -164 -21 -106 -27 -161 -21 -177 10
-26 47 -55 70 -55 8 0 91 36 183 79 l167 79 167 -79 c92 -43 175 -79 183 -79
23 0 60 29 70 55 6 16 0 71 -21 177 -16 84 -28 158 -27 164 2 6 60 61 129 122
152 133 163 153 116 207 -21 25 -35 28 -207 52 -102 13 -186 25 -186 26 -1 1
-36 65 -79 142 -83 151 -102 175 -145 175 -15 0 -37 -8 -48 -17z"/>
<path d="M963 4550 c-13 -6 -45 -54 -88 -134 -37 -69 -72 -126 -78 -126 -7 -1
-70 -9 -141 -19 -117 -17 -132 -21 -153 -45 -43 -50 -34 -71 83 -182 l107
-101 -23 -131 c-12 -71 -20 -142 -16 -156 4 -17 19 -33 42 -43 l35 -17 134 67
135 67 135 -67 134 -67 35 17 c23 10 38 26 42 43 4 14 -4 85 -16 156 l-23 131
107 101 c119 113 129 135 79 185 -25 24 -42 29 -166 45 l-137 19 -66 124 c-75
141 -97 159 -161 133z m73 -311 c35 -74 59 -95 121 -103 114 -16 111 -10 41
-76 -68 -65 -64 -50 -42 -188 l7 -42 -74 35 c-40 19 -80 35 -89 35 -9 0 -49
-16 -89 -35 l-74 -35 7 42 c22 137 25 123 -42 188 -68 66 -71 61 41 76 62 8
86 29 121 103 17 33 33 61 36 61 3 0 19 -28 36 -61z"/>
<path d="M4083 4550 c-13 -6 -45 -54 -88 -134 -37 -69 -72 -126 -78 -126 -7
-1 -70 -9 -141 -19 -117 -17 -132 -21 -153 -45 -43 -50 -34 -71 83 -182 l107
-101 -23 -131 c-12 -71 -20 -142 -16 -156 4 -17 19 -33 42 -43 l35 -17 134 67
135 67 135 -67 134 -67 35 17 c23 10 38 26 42 43 4 14 -4 85 -16 156 l-23 131
107 101 c119 113 129 135 79 185 -25 24 -42 29 -166 45 l-137 19 -66 124 c-75
141 -97 159 -161 133z m73 -311 c35 -74 59 -95 121 -103 114 -16 111 -10 41
-76 -68 -65 -64 -50 -42 -188 l7 -42 -74 35 c-40 19 -80 35 -89 35 -9 0 -49
-16 -89 -35 l-74 -35 7 42 c22 137 25 123 -42 188 -68 66 -71 61 41 76 62 8
86 29 121 103 17 33 33 61 36 61 3 0 19 -28 36 -61z"/>
<path d="M2505 3655 l-25 -24 0 -389 c0 -376 1 -389 20 -410 38 -40 93 -37
127 7 9 12 12 115 13 404 l0 388 -25 24 c-15 16 -36 25 -55 25 -19 0 -40 -9
-55 -25z"/>
<path d="M1705 3575 c-14 -13 -25 -34 -25 -46 0 -20 211 -598 247 -676 16 -35
61 -58 93 -48 29 9 60 45 60 69 0 10 -57 172 -126 358 -88 237 -133 343 -147
353 -32 22 -74 18 -102 -10z"/>
<path d="M3314 3585 c-15 -10 -61 -120 -149 -355 -139 -371 -139 -371 -83
-413 31 -23 69 -18 95 13 20 23 262 666 263 696 0 12 -9 33 -21 48 -24 30 -71
35 -105 11z"/>
<path d="M1065 3415 c-14 -13 -25 -36 -25 -50 0 -14 58 -142 129 -284 131
-260 146 -281 197 -281 23 0 74 55 74 79 0 33 -257 539 -279 551 -33 17 -71
11 -96 -15z"/>
<path d="M3957 3429 c-21 -12 -277 -520 -277 -550 0 -55 58 -91 111 -69 27 11
46 45 160 271 71 143 129 270 129 284 0 55 -73 93 -123 64z"/>
<path d="M759 2630 c-8 -5 -93 -125 -187 -267 -171 -257 -187 -288 -159 -324
25 -32 56 -39 181 -39 l126 0 0 -889 c0 -489 3 -897 6 -906 18 -47 -56 -45
1834 -45 1890 0 1816 -2 1834 45 3 9 6 417 6 906 l0 889 126 0 c76 0 134 5
147 12 31 16 46 39 47 68 0 28 -333 535 -361 551 -23 12 -3579 12 -3600 -1z
m1544 -310 l-106 -160 -784 0 -783 0 107 160 106 160 784 0 783 0 -107 -160z
m433 -164 c49 -74 99 -140 112 -145 15 -8 247 -11 707 -11 l685 0 0 -840 0
-840 -800 0 -800 0 0 985 c0 542 2 985 4 985 2 0 43 -60 92 -134z m-1241
-1221 c40 -39 32 -96 -16 -120 -40 -21 -358 -21 -398 0 -48 24 -56 81 -16 120
24 25 26 25 215 25 189 0 191 0 215 -25z m240 -320 c16 -15 25 -36 25 -55 0
-19 -9 -40 -25 -55 l-24 -25 -311 0 -311 0 -24 25 c-16 15 -25 36 -25 55 0 19
9 40 25 55 l24 25 311 0 311 0 24 -25z"/>
</g>
</svg>
