<?xml version="1.0" standalone="no"?>
<!DOCTYPE svg PUBLIC "-//W3C//DTD SVG 20010904//EN"
 "http://www.w3.org/TR/2001/REC-SVG-20010904/DTD/svg10.dtd">
<svg version="1.0" xmlns="http://www.w3.org/2000/svg"
 width="512.000000pt" height="512.000000pt" viewBox="0 0 512.000000 512.000000"
 preserveAspectRatio="xMidYMid meet">

<g transform="translate(0.000000,512.000000) scale(0.100000,-0.100000)"
fill="currentColor" stroke="none">
<path d="M280 4793 c-8 -3 -23 -12 -32 -21 -17 -14 -18 -132 -18 -2213 l0
-2199 27 -17 c40 -26 246 -26 286 0 l27 17 0 2199 0 2198 -21 19 c-18 16 -39
19 -138 21 -64 1 -123 0 -131 -4z"/>
<path d="M4600 4789 c-13 -5 -28 -15 -32 -22 -4 -7 -8 -1000 -8 -2208 l0
-2196 21 -19 c18 -16 37 -19 139 -19 102 0 121 3 139 19 l21 19 0 2197 0 2197
-21 19 c-18 16 -39 19 -128 21 -58 2 -117 -2 -131 -8z"/>
<path d="M2745 4295 l-25 -24 0 -1951 0 -1951 25 -24 c32 -33 78 -33 110 0
l25 24 0 551 0 551 25 24 24 25 511 0 511 0 24 -25 25 -24 0 -551 0 -551 25
-24 c32 -33 78 -33 110 0 l25 24 0 1951 0 1951 -25 24 c-32 33 -78 33 -110 0
-25 -24 -25 -26 -25 -215 0 -189 0 -191 -25 -215 l-24 -25 -511 0 -511 0 -24
25 c-25 24 -25 26 -25 215 0 189 0 191 -25 215 -15 16 -36 25 -55 25 -19 0
-40 -9 -55 -25z m1230 -640 l25 -24 0 -231 0 -231 -25 -24 -24 -25 -511 0
-511 0 -24 25 -25 24 0 231 0 231 25 24 24 25 511 0 511 0 24 -25z m0 -720
l25 -24 0 -231 0 -231 -25 -24 -24 -25 -511 0 -511 0 -24 25 -25 24 0 231 0
231 25 24 24 25 511 0 511 0 24 -25z m0 -720 l25 -24 0 -231 0 -231 -25 -24
-24 -25 -511 0 -511 0 -24 25 -25 24 0 231 0 231 25 24 24 25 511 0 511 0 24
-25z"/>
<path d="M3040 3400 l0 -120 400 0 400 0 0 120 0 120 -400 0 -400 0 0 -120z"/>
<path d="M3040 2680 l0 -120 400 0 400 0 0 120 0 120 -400 0 -400 0 0 -120z"/>
<path d="M3040 1960 l0 -120 400 0 400 0 0 120 0 120 -400 0 -400 0 0 -120z"/>
<path d="M816 3984 c-20 -19 -23 -193 -4 -212 9 -9 126 -12 464 -12 398 0 454
2 468 16 12 12 16 37 16 104 0 67 -4 92 -16 104 -14 14 -70 16 -464 16 -394 0
-450 -2 -464 -16z"/>
<path d="M2001 3742 c-68 -34 -76 -55 -79 -228 l-3 -154 320 0 321 0 0 200 0
200 -262 0 c-231 0 -267 -2 -297 -18z"/>
<path d="M4320 3561 l0 -201 80 0 80 0 0 143 c0 115 -3 148 -18 176 -22 44
-57 70 -105 78 l-37 6 0 -202z"/>
<path d="M640 3480 l0 -120 560 0 560 0 0 120 0 120 -560 0 -560 0 0 -120z"/>
<path d="M640 3120 l0 -80 960 0 960 0 0 80 0 80 -960 0 -960 0 0 -80z"/>
<path d="M4320 3120 l0 -80 80 0 80 0 0 80 0 80 -80 0 -80 0 0 -80z"/>
<path d="M816 1824 c-20 -19 -23 -193 -4 -212 17 -17 919 -17 936 0 19 19 16
193 -4 212 -14 14 -70 16 -464 16 -394 0 -450 -2 -464 -16z"/>
<path d="M2001 1582 c-68 -34 -76 -55 -79 -228 l-3 -154 320 0 321 0 0 200 0
200 -262 0 c-231 0 -267 -2 -297 -18z"/>
<path d="M4320 1401 l0 -201 80 0 80 0 0 143 c0 115 -3 148 -18 176 -22 44
-57 70 -105 78 l-37 6 0 -202z"/>
<path d="M640 1320 l0 -120 560 0 560 0 0 120 0 120 -560 0 -560 0 0 -120z"/>
<path d="M3040 1280 l0 -80 400 0 400 0 0 80 0 80 -400 0 -400 0 0 -80z"/>
<path d="M640 960 l0 -80 960 0 960 0 0 80 0 80 -960 0 -960 0 0 -80z"/>
<path d="M3040 960 l0 -80 400 0 400 0 0 80 0 80 -400 0 -400 0 0 -80z"/>
<path d="M4320 960 l0 -80 80 0 80 0 0 80 0 80 -80 0 -80 0 0 -80z"/>
</g>
</svg>
