<svg xmlns="http://www.w3.org/2000/svg" width="24" height="24" viewBox="0 0 24 24" fill="none">
  <path fill-rule="evenodd" clip-rule="evenodd" d="M4 2.5C2.61929 2.5 1.5 3.61929 1.5 5V19C1.5 20.3807 2.61929 21.5 4 21.5H20C21.3807 21.5 22.5 20.3807 22.5 19V5C22.5 3.61929 21.3807 2.5 20 2.5H4ZM3 5C3 4.44772 3.44772 4 4 4H20C20.5523 4 21 4.44772 21 5V19C21 19.5523 20.5523 20 20 20H4C3.44772 20 3 19.5523 3 19V5Z" fill="currentColor"/>

  <rect x="5" y="6" width="5" height="11" rx="1" fill="currentColor"/>
  <rect x="14" y="6" width="5" height="7" rx="1" fill="currentColor"/>
</svg>
