<?xml version="1.0" standalone="no"?>
<!DOCTYPE svg PUBLIC "-//W3C//DTD SVG 20010904//EN"
 "http://www.w3.org/TR/2001/REC-SVG-20010904/DTD/svg10.dtd">
<svg version="1.0" xmlns="http://www.w3.org/2000/svg"
 width="512.000000pt" height="512.000000pt" viewBox="0 0 512.000000 512.000000"
 preserveAspectRatio="xMidYMid meet">

<g transform="translate(0.000000,512.000000) scale(0.100000,-0.100000)"
fill="currentColor" stroke="none">
<path d="M735 5069 c-275 -41 -526 -239 -631 -497 -64 -158 -59 -2 -59 -2012
0 -1712 1 -1829 18 -1889 43 -156 100 -261 202 -369 108 -115 212 -179 372
-229 l88 -28 1825 0 c1753 0 1828 1 1900 19 152 38 289 117 396 228 101 104
155 197 201 345 l28 88 0 1835 0 1835 -28 88 c-48 153 -112 261 -219 363 -104
101 -223 169 -368 210 -62 18 -144 19 -1865 20 -994 1 -1827 -2 -1860 -7z
m3647 -260 c150 -31 311 -155 376 -289 67 -137 63 -2 60 -1986 l-3 -1799 -23
-59 c-63 -167 -175 -281 -340 -345 l-67 -26 -1799 -3 c-1983 -3 -1849 -7
-1985 60 -94 45 -198 152 -244 248 -19 41 -40 99 -46 128 -16 75 -16 3569 0
3644 41 197 215 376 412 424 70 17 3577 20 3659 3z"/>
<path d="M2123 4170 c-23 -5 -56 -16 -73 -25 -69 -36 -93 -136 -45 -193 39
-46 72 -56 154 -43 93 15 142 14 226 -4 167 -35 308 -147 383 -305 49 -104 62
-163 62 -285 0 -250 -143 -445 -388 -531 -205 -71 -437 -16 -594 142 -105 106
-160 226 -173 381 -6 67 -3 91 20 167 36 124 41 166 22 203 -42 81 -157 92
-211 20 -13 -18 -37 -70 -52 -117 -25 -77 -28 -99 -28 -235 -1 -114 3 -166 17
-215 42 -154 153 -333 262 -423 l55 -45 -103 -50 c-308 -152 -540 -395 -673
-704 -82 -191 -127 -473 -90 -560 38 -89 90 -125 292 -204 333 -130 682 -194
1064 -195 386 0 711 57 1060 188 217 82 273 120 306 210 17 49 17 191 0 273
-8 36 -13 66 -12 67 0 1 57 16 126 33 262 65 384 116 462 191 l48 45 0 85 c-1
267 -113 522 -320 729 -79 79 -196 163 -279 202 l-49 22 62 67 c108 117 164
246 173 399 12 208 -83 419 -255 563 -109 92 -277 156 -408 157 -117 0 -275
-50 -374 -118 l-54 -38 -41 26 c-129 86 -433 150 -572 120z m1130 -265 c147
-38 249 -133 296 -273 36 -107 23 -240 -33 -336 -38 -66 -136 -151 -203 -177
-62 -23 -217 -37 -241 -21 -10 7 -9 22 4 78 25 106 15 304 -19 409 -24 71 -81
183 -122 241 -14 19 -13 22 32 44 100 50 187 61 286 35z m-3 -1075 c187 -25
369 -119 506 -261 81 -86 127 -157 174 -273 61 -148 54 -213 -29 -255 -37 -19
-243 -80 -334 -99 l-48 -10 -29 57 c-60 121 -154 246 -264 356 -124 123 -235
202 -380 271 -53 25 -94 50 -91 55 3 5 34 29 69 54 74 52 176 93 261 105 83
11 81 11 165 0z m-730 -369 c437 -98 750 -426 844 -885 28 -132 29 -129 -69
-170 -119 -49 -311 -110 -447 -140 -218 -48 -335 -60 -598 -60 -284 1 -429 18
-686 84 -143 36 -405 127 -426 148 -5 5 -4 39 2 83 35 247 125 438 287 609
187 197 412 311 693 350 94 13 301 3 400 -19z"/>
</g>
</svg>
